<svg width="49" height="52" viewBox="0 0 49 52" fill="none" xmlns="http://www.w3.org/2000/svg">
<path d="M6.125 34.6667V17.3333C6.12573 16.5734 6.31476 15.8271 6.67311 15.1692C7.03146 14.5113 7.54653 13.9649 8.16667 13.585L22.4583 4.91832C23.0791 4.538 23.7832 4.33777 24.5 4.33777C25.2168 4.33777 25.9209 4.538 26.5417 4.91832L40.8333 13.585C41.4535 13.9649 41.9685 14.5113 42.3269 15.1692C42.6852 15.8271 42.8743 16.5734 42.875 17.3333V34.6667C42.8743 35.4266 42.6852 36.1729 42.3269 36.8308C41.9685 37.4887 41.4535 38.035 40.8333 38.415L26.5417 47.0817C25.9209 47.462 25.2168 47.6622 24.5 47.6622C23.7832 47.6622 23.0791 47.462 22.4583 47.0817L8.16667 38.415C7.54653 38.035 7.03146 37.4887 6.67311 36.8308C6.31476 36.1729 6.12573 35.4266 6.125 34.6667Z" stroke="#111111" stroke-width="2" stroke-linecap="round" stroke-linejoin="round"/>
<path d="M42.3237 15.08L24.5 26.0217L6.67624 15.08" stroke="#111111" stroke-width="2" stroke-linecap="round" stroke-linejoin="round"/>
<path d="M24.5 47.84V26" stroke="#111111" stroke-width="2" stroke-linecap="round" stroke-linejoin="round"/>
</svg>
