<svg width="108" height="109" viewBox="0 0 108 109" fill="none" xmlns="http://www.w3.org/2000/svg">
<path d="M94.5 72.6667V36.3333C94.4984 34.7405 94.0818 33.176 93.2919 31.797C92.5021 30.4179 91.3668 29.2727 90 28.4763L58.5 10.3096C57.1318 9.51236 55.5798 9.09265 54 9.09265C52.4202 9.09265 50.8682 9.51236 49.5 10.3096L18 28.4763C16.6332 29.2727 15.4979 30.4179 14.7081 31.797C13.9182 33.176 13.5016 34.7405 13.5 36.3333V72.6667C13.5016 74.2596 13.9182 75.824 14.7081 77.2031C15.4979 78.5821 16.6332 79.7273 18 80.5238L49.5 98.6904C50.8682 99.4877 52.4202 99.9074 54 99.9074C55.5798 99.9074 57.1318 99.4877 58.5 98.6904L90 80.5238C91.3668 79.7273 92.5021 78.5821 93.2919 77.2031C94.0818 75.824 94.4984 74.2596 94.5 72.6667Z" stroke="#111111" stroke-width="2" stroke-linecap="round" stroke-linejoin="round"/>
<path d="M14.715 31.61L54 54.5454L93.285 31.61" stroke="#111111" stroke-width="2" stroke-linecap="round" stroke-linejoin="round"/>
<path d="M54 100.28V54.5" stroke="#111111" stroke-width="2" stroke-linecap="round" stroke-linejoin="round"/>
</svg>
