<svg width="44" height="41" viewBox="0 0 44 41" fill="none" xmlns="http://www.w3.org/2000/svg">
<g filter="url(#filter0_d_15_330)">
<path d="M20.2917 35.8958C21.3141 36.6257 22.6859 36.6257 23.7083 35.8958C28.818 32.2482 33.7111 28.0517 37.096 22.6815C38.7918 19.9911 39.5026 17.8153 39.7821 16.0362C39.895 15.4098 39.954 14.7635 39.954 14.1028C39.954 8.36421 35.5004 3.71217 30.0065 3.71217C26.7233 3.71217 23.8117 5.37358 22 7.93544C20.1883 5.37358 17.2767 3.71217 13.9935 3.71217C8.49962 3.71217 4.04598 8.36421 4.04598 14.1028C4.04598 14.7635 4.10501 15.4098 4.21787 16.0362C4.49744 17.8153 5.20824 19.9911 6.904 22.6815C10.2889 28.0517 15.182 32.2482 20.2917 35.8958Z" fill="#FBFBFB"/>
<path d="M20.2917 31.5283C21.3141 32.2581 22.6859 32.2581 23.7083 31.5283C29.3333 28.4938 31.3563 27.4823 37.096 22.6815C38.7918 19.9911 39.5026 17.8153 39.7821 16.0362C39.895 15.4098 39.954 14.7635 39.954 14.1028C39.954 8.36421 35.5004 3.71217 30.0065 3.71217C26.7233 3.71217 23.8117 5.37358 22 7.93544C20.1883 5.37358 17.2767 3.71217 13.9935 3.71217C8.49962 3.71217 4.04598 8.36421 4.04598 14.1028C4.04598 14.7635 4.10501 15.4098 4.21787 16.0362C4.49744 17.8153 5.20824 19.9911 6.904 22.6815C13.1494 27.4823 15.1724 28.4938 20.2917 31.5283Z" fill="white"/>
</g>
<defs>
<filter id="filter0_d_15_330" x="0" y="-1.7273e-05" width="44" height="40.823" filterUnits="userSpaceOnUse" color-interpolation-filters="sRGB">
<feFlood flood-opacity="0" result="BackgroundImageFix"/>
<feColorMatrix in="SourceAlpha" type="matrix" values="0 0 0 0 0 0 0 0 0 0 0 0 0 0 0 0 0 0 127 0" result="hardAlpha"/>
<feOffset dy="0.33"/>
<feGaussianBlur stdDeviation="2"/>
<feColorMatrix type="matrix" values="0 0 0 0 0 0 0 0 0 0 0 0 0 0 0 0 0 0 0.1 0"/>
<feBlend mode="normal" in2="BackgroundImageFix" result="effect1_dropShadow_15_330"/>
<feBlend mode="normal" in="SourceGraphic" in2="effect1_dropShadow_15_330" result="shape"/>
</filter>
</defs>
</svg>
