<svg width="390" height="40" viewBox="0 0 390 40" fill="none" xmlns="http://www.w3.org/2000/svg">
<g clip-path="url(#clip0_21_641)">
<g filter="url(#filter0_d_21_641)">
<rect width="414" height="39.67" fill="white"/>
</g>
<path d="M297.317 13.3622C295.843 13.7515 294.75 14.9914 294.75 16.5C294.75 17.2715 295.041 18.1582 295.584 19.1275C296.123 20.0902 296.882 21.0824 297.747 22.0508C299.291 23.7803 301.12 25.3756 302.5 26.5261C302.7 26.3597 302.909 26.184 303.125 26C303.31 25.8422 303.582 25.8389 303.77 25.9935L304.163 26.3171C304.402 26.5136 304.407 26.8776 304.172 27.0785C303.738 27.4488 303.334 27.7847 302.977 28.0788C302.7 28.3069 302.3 28.3069 302.023 28.0788C300.603 26.9094 298.44 25.0789 296.628 23.0498C295.722 22.035 294.887 20.9523 294.275 19.8607C293.667 18.7758 293.25 17.629 293.25 16.5C293.25 14.2077 294.907 12.4475 296.933 11.912C298.761 11.4291 300.88 11.9271 302.5 13.7684C304.12 11.9271 306.239 11.4291 308.067 11.912C310.093 12.4476 311.75 14.2078 311.75 16.5001C311.75 16.9098 311.695 17.3218 311.596 17.7324C311.519 18.0526 311.143 18.1766 310.871 17.9911L310.406 17.6739C310.231 17.5547 310.153 17.3388 310.191 17.1305C310.23 16.9128 310.25 16.7025 310.25 16.5001C310.25 14.9915 309.157 13.7516 307.683 13.3623C306.257 12.9852 304.454 13.4213 303.124 15.4159L302.916 15.7279C302.718 16.0248 302.282 16.0248 302.084 15.7279L301.876 15.4159C300.546 13.4213 298.743 12.9852 297.317 13.3622Z" fill="#D7D7D9"/>
<path fill-rule="evenodd" clip-rule="evenodd" d="M303.558 18.0581C303.802 17.814 304.198 17.814 304.442 18.0581L311.442 25.0581C311.686 25.3021 311.686 25.6979 311.442 25.9419C311.198 26.186 310.802 26.186 310.558 25.9419L309.777 25.1605C309.056 25.471 308.274 25.6249 307.5 25.6249C305.475 25.6249 303.399 24.5719 302.494 22.4178C302.382 22.1515 302.382 21.8485 302.494 21.5821C302.864 20.7021 303.429 20.0058 304.106 19.49L303.558 18.9419C303.314 18.6979 303.314 18.3021 303.558 18.0581ZM305.001 20.385L308.803 24.1873C308.384 24.312 307.944 24.3749 307.5 24.3749C305.909 24.3749 304.367 23.5679 303.675 22C303.977 21.3152 304.441 20.7756 305.001 20.385Z" fill="#D7D7D9"/>
<path d="M310.815 22.8477C311.015 22.5957 311.187 22.313 311.325 22C310.633 20.4321 309.091 19.625 307.5 19.625C307.459 19.625 307.417 19.6255 307.376 19.6266C307.305 19.6285 307.236 19.6024 307.186 19.5524L306.481 18.847C306.342 18.7085 306.41 18.4739 306.604 18.4439C306.901 18.3979 307.201 18.375 307.5 18.375C309.525 18.375 311.601 19.428 312.506 21.5821C312.618 21.8485 312.618 22.1515 312.506 22.4178C312.3 22.9084 312.033 23.3419 311.72 23.7188C311.629 23.8281 311.465 23.831 311.364 23.7306L310.83 23.1964C310.736 23.1024 310.733 22.9519 310.815 22.8477Z" fill="#D7D7D9"/>
<path d="M106.5 12.5C106.5 12.2239 106.276 12 106 12H105C104.724 12 104.5 12.2239 104.5 12.5V18.5C104.5 18.7761 104.724 19 105 19H106C106.276 19 106.5 18.7761 106.5 18.5V12.5Z" fill="#161722"/>
<path d="M106.5 21.5C106.5 21.2239 106.276 21 106 21H105C104.724 21 104.5 21.2239 104.5 21.5V27.5C104.5 27.7761 104.724 28 105 28H106C106.276 28 106.5 27.7761 106.5 27.5V21.5Z" fill="#161722"/>
<path d="M112 21C112.276 21 112.5 21.2239 112.5 21.5V27.5C112.5 27.7761 112.276 28 112 28H111C110.724 28 110.5 27.7761 110.5 27.5V21.5C110.5 21.2239 110.724 21 111 21H112Z" fill="#161722"/>
<path d="M112.5 12.5C112.5 12.2239 112.276 12 112 12H111C110.724 12 110.5 12.2239 110.5 12.5V18.5C110.5 18.7761 110.724 19 111 19H112C112.276 19 112.5 18.7761 112.5 18.5V12.5Z" fill="#161722"/>
<path d="M118 21C118.276 21 118.5 21.2239 118.5 21.5V27.5C118.5 27.7761 118.276 28 118 28H117C116.724 28 116.5 27.7761 116.5 27.5V21.5C116.5 21.2239 116.724 21 117 21H118Z" fill="#161722"/>
<path d="M118.5 12.5C118.5 12.2239 118.276 12 118 12H117C116.724 12 116.5 12.2239 116.5 12.5V18.5C116.5 18.7761 116.724 19 117 19H118C118.276 19 118.5 18.7761 118.5 18.5V12.5Z" fill="#161722"/>
<line x1="87.3301" y1="39" x2="135.33" y2="39" stroke="#161722" stroke-width="2"/>
</g>
<defs>
<filter id="filter0_d_21_641" x="0" y="0" width="414" height="40" filterUnits="userSpaceOnUse" color-interpolation-filters="sRGB">
<feFlood flood-opacity="0" result="BackgroundImageFix"/>
<feColorMatrix in="SourceAlpha" type="matrix" values="0 0 0 0 0 0 0 0 0 0 0 0 0 0 0 0 0 0 127 0" result="hardAlpha"/>
<feOffset dy="0.33"/>
<feColorMatrix type="matrix" values="0 0 0 0 0.815686 0 0 0 0 0.819608 0 0 0 0 0.827451 0 0 0 1 0"/>
<feBlend mode="normal" in2="BackgroundImageFix" result="effect1_dropShadow_21_641"/>
<feBlend mode="normal" in="SourceGraphic" in2="effect1_dropShadow_21_641" result="shape"/>
</filter>
<clipPath id="clip0_21_641">
<rect width="390" height="40" fill="white"/>
</clipPath>
</defs>
</svg>
