<svg width="49" height="52" viewBox="0 0 49 52" fill="none" xmlns="http://www.w3.org/2000/svg">
<path d="M42.875 34.6667V17.3333C42.8743 16.5734 42.6852 15.8271 42.3269 15.1692C41.9685 14.5113 41.4535 13.9649 40.8333 13.585L26.5417 4.91832C25.9209 4.538 25.2168 4.33777 24.5 4.33777C23.7832 4.33777 23.0791 4.538 22.4583 4.91832L8.16667 13.585C7.54654 13.9649 7.03146 14.5113 6.67311 15.1692C6.31476 15.8271 6.12573 16.5734 6.125 17.3333V34.6667C6.12573 35.4266 6.31476 36.1729 6.67311 36.8308C7.03146 37.4887 7.54654 38.035 8.16667 38.415L22.4583 47.0817C23.0791 47.462 23.7832 47.6622 24.5 47.6622C25.2168 47.6622 25.9209 47.462 26.5417 47.0817L40.8333 38.415C41.4535 38.035 41.9685 37.4887 42.3269 36.8308C42.6852 36.1729 42.8743 35.4266 42.875 34.6667Z" stroke="#111111" stroke-width="2" stroke-linecap="round" stroke-linejoin="round"/>
<path d="M6.67627 15.08L24.5 26.0217L42.3238 15.08" stroke="#111111" stroke-width="2" stroke-linecap="round" stroke-linejoin="round"/>
<path d="M24.5 47.84V26" stroke="#111111" stroke-width="2" stroke-linecap="round" stroke-linejoin="round"/>
</svg>
