<svg width="34" height="34" viewBox="0 0 34 34" fill="none" xmlns="http://www.w3.org/2000/svg">
<g clip-path="url(#clip0_15_333)">
<path d="M28.5276 34C28.0035 33.9986 27.4849 33.8933 27.0018 33.6902C26.5186 33.4872 26.0805 33.1904 25.7127 32.8171L17.0002 24.1556L8.28769 32.8228C7.72815 33.3904 7.01056 33.7764 6.22845 33.9303C5.44635 34.0842 4.63602 33.9989 3.90311 33.6855C3.16293 33.3878 2.52972 32.8738 2.08618 32.2106C1.64264 31.5475 1.40938 30.7659 1.41686 29.9682V7.08333C1.41686 5.20472 2.16314 3.40304 3.49152 2.07466C4.8199 0.746278 6.62158 0 8.5002 0L25.5002 0C26.4304 0 27.3515 0.183216 28.2109 0.539187C29.0703 0.895158 29.8511 1.41691 30.5089 2.07466C31.1666 2.73241 31.6884 3.51327 32.0443 4.37266C32.4003 5.23205 32.5835 6.15314 32.5835 7.08333V29.9682C32.5915 30.7653 32.359 31.5463 31.9166 32.2094C31.4741 32.8725 30.8421 33.3869 30.1029 33.6855C29.604 33.8942 29.0684 34.0011 28.5276 34ZM8.5002 2.83333C7.37302 2.83333 6.29202 3.2811 5.49499 4.07813C4.69796 4.87516 4.2502 5.95616 4.2502 7.08333V29.9682C4.24968 30.2042 4.31914 30.4352 4.4498 30.6318C4.58046 30.8284 4.76646 30.9818 4.9843 31.0728C5.20214 31.1638 5.44205 31.1881 5.67372 31.1428C5.90539 31.0975 6.11844 30.9845 6.28594 30.8182L16.0085 21.1551C16.274 20.8912 16.633 20.7431 17.0073 20.7431C17.3815 20.7431 17.7406 20.8912 18.006 21.1551L27.7173 30.8153C27.8848 30.9817 28.0978 31.0946 28.3295 31.14C28.5612 31.1853 28.8011 31.1609 29.0189 31.07C29.2368 30.979 29.4228 30.8255 29.5534 30.6289C29.6841 30.4323 29.7535 30.2014 29.753 29.9653V7.08333C29.753 5.95616 29.3053 4.87516 28.5082 4.07813C27.7112 3.2811 26.6302 2.83333 25.503 2.83333H8.5002Z" fill="#374957"/>
</g>
<defs>
<clipPath id="clip0_15_333">
<rect width="34" height="34" fill="white"/>
</clipPath>
</defs>
</svg>
