<svg width="44" height="44" viewBox="0 0 44 44" fill="none" xmlns="http://www.w3.org/2000/svg">
<path fill-rule="evenodd" clip-rule="evenodd" d="M13 13.9852C13 12.3365 14.3431 11 16 11H28C29.6569 11 31 12.3365 31 13.9852V31.5474C31 32.7539 29.6054 33.4326 28.6483 32.6919L22 27.5466L15.3517 32.6919C14.3946 33.4326 13 32.7539 13 31.5474V13.9852ZM16 13.5587C15.7633 13.5587 15.5714 13.7496 15.5714 13.9852V29.2803L20.6844 25.3232C21.4582 24.7244 22.5418 24.7244 23.3156 25.3232L28.4286 29.2803V13.9852C28.4286 13.7496 28.2367 13.5587 28 13.5587H16Z" fill="#161722"/>
<rect x="0.5" y="0.5" width="43" height="43" rx="1.5" stroke="#E3E3E4"/>
</svg>
