<svg width="11" height="13" viewBox="0 0 11 13" fill="none" xmlns="http://www.w3.org/2000/svg">
<path fill-rule="evenodd" clip-rule="evenodd" d="M0 1.76396C0 0.789753 0.789753 0 1.76396 0H8.81982C9.79403 0 10.5838 0.789753 10.5838 1.76396V12.1416C10.5838 12.8546 9.76377 13.2557 9.20098 12.818L5.29189 9.77754L1.3828 12.8179C0.820012 13.2557 0 12.8546 0 12.1416V1.76396ZM1.76396 1.51197C1.62479 1.51197 1.51197 1.62479 1.51197 1.76396V10.802L4.51834 8.46374C4.97333 8.10986 5.61045 8.10986 6.06544 8.46374L9.07181 10.802V1.76396C9.07181 1.62479 8.95899 1.51197 8.81982 1.51197H1.76396Z" fill="#161722"/>
</svg>
