<svg width="21" height="19" viewBox="0 0 21 19" fill="none" xmlns="http://www.w3.org/2000/svg">
<path fill-rule="evenodd" clip-rule="evenodd" d="M10.8949 5.00766C5.05382 5.8421 0.95295 11.549 0.043859 16.6123C0.0348485 16.6625 0.0261514 16.7126 0.0177694 16.7627C-0.163243 17.8436 1.0789 18.3451 1.91457 17.636C4.55744 15.3935 6.70254 14.4557 8.89428 14.1423C9.55205 14.0483 10.214 14.0104 10.8949 14.0104L10.8949 17.5973C10.8949 18.4885 11.9724 18.9348 12.6025 18.3046L20.707 10.2001C21.0913 9.81588 21.0985 9.19517 20.7233 8.8021L12.6188 0.311632C11.9957 -0.341151 10.8949 0.0998838 10.8949 1.00232V5.00766ZM12.8955 3.49899V5.87522C12.8955 6.37303 12.5295 6.79508 12.0367 6.86548L11.1778 6.98817C8.37788 7.38816 5.94484 9.2137 4.22735 11.7068C3.60821 12.6056 3.10674 13.5562 2.72705 14.5068C3.47109 14.0086 4.20019 13.5956 4.92584 13.2587C6.99939 12.296 8.92637 12.0098 10.8949 12.0098H11.8952C12.4477 12.0098 12.8955 12.4577 12.8955 13.0101L12.8955 15.1823L18.6013 9.47653L12.8955 3.49899Z" fill="#161722"/>
</svg>
